<svg xmlns="http://www.w3.org/2000/svg" xmlns:xlink="http://www.w3.org/1999/xlink" xmlns:svgjs="http://svgjs.dev/svgjs" width="1500" height="1500"><path d="M0 0h1500v1500H0z"/><svg viewBox="0 0 396 232" data-background-color="#ffffff" height="878" width="1500" xmlns="http://www.w3.org/2000/svg" xmlns:xlink="http://www.w3.org/1999/xlink" transform="matrix(.66667 0 0 .66667 249.394 451.37)"><svg viewBox="0 0 395.52 229.454" height="229.454" width="395.52" transform="translate(.24 2.397)"><svg viewBox="0 0 395.52 229.454" height="229.454" width="395.52"><svg viewBox="0 0 395.52 91.861" height="91.861" width="395.52" transform="translate(0 137.593)"><svg viewBox="0 0 395.52 91.861" height="91.861" width="395.52"><svg viewBox="0 0 395.52 91.861" height="91.861" width="395.52"><svg width="395.52" viewBox="3.2 -33.1 145.09 33.7" height="91.861" data-palette-color="#085f63"><path d="M11.8 0H3.2v-32.5h12.2q2.6 0 4.98.52 2.37.53 4.15 1.8 1.77 1.28 2.82 3.35 1.05 2.08 1.05 5.13 0 3-1.07 5.15-1.08 2.15-2.88 3.52-1.8 1.38-4.15 2.05-2.35.68-4.9.68h-3.6V0zm0-25.7v8.6H15q2.55 0 3.78-1.2Q20-19.5 20-21.7t-1.3-3.1q-1.3-.9-3.7-.9h-3.2zM56.8 0H34.2v-32.5h22.1v7.2H42.8v5.1h11.5v7.2H42.8v5.8h14V0zm14.7 0h-8.6v-32.5H75q2.59 0 4.97.5 2.37.5 4.15 1.7 1.78 1.2 2.83 3.22Q88-25.05 88-22q0 3.5-1.43 5.8-1.42 2.3-3.82 3.6L89.8 0h-9.6l-5.61-10.9H71.5V0zm0-25.7v8h2.9q5.19 0 5.19-4.3 0-2.1-1.32-2.9-1.32-.8-3.87-.8h-2.9zM104.79.6q-3.2 0-6.52-1.13-3.33-1.12-6.08-3.52l4.9-5.9q1.85 1.4 3.95 2.27 2.1.88 4.35.88 1.95 0 2.78-.55.82-.55.82-1.35 0-.7-.32-1.18-.33-.47-.93-.85-.6-.37-1.47-.72-.88-.35-1.98-.8l-4.05-1.7q-1.4-.5-2.65-1.33-1.25-.82-2.17-1.95-.93-1.12-1.48-2.57-.55-1.45-.55-3.2 0-2.1.9-3.93.9-1.82 2.53-3.2 1.62-1.37 3.9-2.17 2.27-.8 5.07-.8 2.9 0 5.8 1.05t5.3 3.3l-4.3 5.4q-1.75-1.15-3.37-1.75-1.63-.6-3.93-.6-1.45 0-2.32.52-.88.53-.88 1.68 0 .55.35.97.35.43 1 .78.65.35 1.6.7.95.35 2.15.8l3.75 1.55q3.3 1.2 5.08 3.35 1.77 2.15 1.77 5.55 0 2.05-.85 3.95-.85 1.9-2.5 3.32-1.65 1.43-4.07 2.28-2.43.85-5.58.85zm30.2 0q-2.95 0-5.4-1.08-2.45-1.07-4.2-3.2-1.75-2.12-2.72-5.29-.98-3.18-.98-7.43 0-4.1.98-7.23.97-3.12 2.72-5.22 1.75-2.1 4.2-3.17 2.45-1.08 5.4-1.08t5.4 1.08q2.45 1.07 4.2 3.17 1.75 2.1 2.72 5.22.98 3.13.98 7.23 0 4.25-.98 7.43-.97 3.17-2.72 5.29-1.75 2.13-4.2 3.2Q137.94.6 134.99.6zm0-7.4q2.1 0 3.3-2.35 1.2-2.35 1.2-7.25 0-4.7-1.2-7t-3.3-2.3q-2.1 0-3.3 2.3-1.2 2.3-1.2 7 0 4.9 1.2 7.25 1.2 2.35 3.3 2.35z" fill="#fff" class="wordmark-text-0" data-fill-palette-color="primary"/></svg></svg></svg></svg><svg viewBox="0 0 244.431 115.907" height="115.907" width="244.431" transform="translate(75.544)"><svg xmlns="http://www.w3.org/2000/svg" data-name="Layer 1" viewBox="12.165 30.81 75.64 38.38" x="8" height="115.907" width="228.431" class="icon-icon-0" data-fill-palette-color="accent"><path d="M82.65 44.85h-.74v-4.76a5.54 5.54 0 0 0-5.54-5.54A5.51 5.51 0 0 0 72.63 36a6.74 6.74 0 0 0-6.54-5.19H66a6.74 6.74 0 0 0-6.73 6.73v7.31H40.92v-7.31A6.76 6.76 0 0 0 27.6 36a5.54 5.54 0 0 0-9.28 4.09v4.76h-1a5.15 5.15 0 1 0 0 10.31h1v4.76a5.54 5.54 0 0 0 5.54 5.54A5.51 5.51 0 0 0 27.6 64a6.73 6.73 0 0 0 6.54 5.19h.06a6.74 6.74 0 0 0 6.73-6.73v-7.3H59.3v7.31A6.76 6.76 0 0 0 72.63 64a5.54 5.54 0 0 0 9.28-4.09v-4.75h.74a5.15 5.15 0 1 0 0-10.31zm-64.34 8.31h-1a3.15 3.15 0 0 1 0-6.31h1v6.31zm9.1 6.76a3.54 3.54 0 0 1-3.54 3.54 3.54 3.54 0 0 1-3.54-3.54V40.09a3.55 3.55 0 0 1 7.1 0v19.82zm11.51-14.1V62.33a4.73 4.73 0 0 1-4.73 4.73h-.05a4.73 4.73 0 0 1-4.73-4.73V37.54a4.76 4.76 0 0 1 9.51 0v8.28zm20.38 7.34H40.92v-6.31H59.3v6.31zm11.51-13.07v22.37a4.76 4.76 0 0 1-9.51 0V37.54a4.73 4.73 0 0 1 4.7-4.73h.06a4.73 4.73 0 0 1 4.73 4.73v2.55zm9.1 19.83a3.55 3.55 0 0 1-7.1 0V40.09a3.54 3.54 0 0 1 3.54-3.54 3.54 3.54 0 0 1 3.54 3.54v19.82zm5-7.68a3.12 3.12 0 0 1-2.23.93h-.77v-6.32h.74A3.16 3.16 0 0 1 85.8 50a3.13 3.13 0 0 1-.92 2.23z" fill="#fff" data-fill-palette-color="accent"/></svg></svg><g fill="#fff"><path data-fill-palette-color="accent" d="M319.976 106.623h75.544v8.284h-75.544zM0 106.623h75.544v8.284H0zM319.976 90.055h75.544v8.284h-75.544zM0 90.055h75.544v8.284H0z"/></g></svg></svg></svg></svg>