<svg xmlns="http://www.w3.org/2000/svg" version="1.1" xmlns:xlink="http://www.w3.org/1999/xlink" xmlns:svgjs="http://svgjs.dev/svgjs" width="1500" height="1500" viewBox="0 0 1500 1500"><rect width="1500" height="1500" fill="#ffffff"></rect><g transform="matrix(0.6666666666666666,0,0,0.6666666666666666,249.39393939393932,451.3698124616148)"><svg viewBox="0 0 396 232" data-background-color="#ffffff" preserveAspectRatio="xMidYMid meet" height="878" width="1500" xmlns="http://www.w3.org/2000/svg" xmlns:xlink="http://www.w3.org/1999/xlink"><g id="tight-bounds" transform="matrix(1,0,0,1,0.24000000000003752,2.3969893477156745)"><svg viewBox="0 0 395.5199999999999 229.45398629158598" height="229.45398629158598" width="395.5199999999999"><g><svg viewBox="0 0 395.5199999999999 229.45398629158598" height="229.45398629158598" width="395.5199999999999"><g transform="matrix(1,0,0,1,0,137.5930352233572)"><svg viewBox="0 0 395.5199999999999 91.8609510682288" height="91.8609510682288" width="395.5199999999999"><g id="textblocktransform"><svg viewBox="0 0 395.5199999999999 91.8609510682288" height="91.8609510682288" width="395.5199999999999" id="textblock"><g><svg viewBox="0 0 395.5199999999999 91.8609510682288" height="91.8609510682288" width="395.5199999999999"><g transform="matrix(1,0,0,1,0,0)"><svg width="395.5199999999999" viewBox="3.2 -33.1 145.09 33.7" height="91.8609510682288" data-palette-color="#085f63"><path d="M11.8 0L3.2 0 3.2-32.5 15.4-32.5Q18-32.5 20.38-31.98 22.75-31.45 24.53-30.18 26.3-28.9 27.35-26.83 28.4-24.75 28.4-21.7L28.4-21.7Q28.4-18.7 27.33-16.55 26.25-14.4 24.45-13.03 22.65-11.65 20.3-10.98 17.95-10.3 15.4-10.3L15.4-10.3 11.8-10.3 11.8 0ZM11.8-25.7L11.8-17.1 15-17.1Q17.55-17.1 18.78-18.3 20-19.5 20-21.7L20-21.7Q20-23.9 18.7-24.8 17.4-25.7 15-25.7L15-25.7 11.8-25.7ZM56.8 0L34.2 0 34.2-32.5 56.3-32.5 56.3-25.3 42.8-25.3 42.8-20.2 54.3-20.2 54.3-13 42.8-13 42.8-7.2 56.8-7.2 56.8 0ZM71.5 0L62.9 0 62.9-32.5 75-32.5Q77.59-32.5 79.97-32 82.34-31.5 84.12-30.3 85.9-29.1 86.95-27.08 88-25.05 88-22L88-22Q88-18.5 86.57-16.2 85.15-13.9 82.75-12.6L82.75-12.6 89.8 0 80.2 0 74.59-10.9 71.5-10.9 71.5 0ZM71.5-25.7L71.5-17.7 74.4-17.7Q79.59-17.7 79.59-22L79.59-22Q79.59-24.1 78.27-24.9 76.95-25.7 74.4-25.7L74.4-25.7 71.5-25.7ZM104.79 0.6L104.79 0.6Q101.59 0.6 98.27-0.53 94.94-1.65 92.19-4.05L92.19-4.05 97.09-9.95Q98.94-8.55 101.04-7.68 103.14-6.8 105.39-6.8L105.39-6.8Q107.34-6.8 108.17-7.35 108.99-7.9 108.99-8.7L108.99-8.7Q108.99-9.4 108.67-9.88 108.34-10.35 107.74-10.73 107.14-11.1 106.27-11.45 105.39-11.8 104.29-12.25L104.29-12.25 100.24-13.95Q98.84-14.45 97.59-15.28 96.34-16.1 95.42-17.23 94.49-18.35 93.94-19.8 93.39-21.25 93.39-23L93.39-23Q93.39-25.1 94.29-26.93 95.19-28.75 96.82-30.13 98.44-31.5 100.72-32.3 102.99-33.1 105.79-33.1L105.79-33.1Q108.69-33.1 111.59-32.05 114.49-31 116.89-28.75L116.89-28.75 112.59-23.35Q110.84-24.5 109.22-25.1 107.59-25.7 105.29-25.7L105.29-25.7Q103.84-25.7 102.97-25.18 102.09-24.65 102.09-23.5L102.09-23.5Q102.09-22.95 102.44-22.53 102.79-22.1 103.44-21.75 104.09-21.4 105.04-21.05 105.99-20.7 107.19-20.25L107.19-20.25 110.94-18.7Q114.24-17.5 116.02-15.35 117.79-13.2 117.79-9.8L117.79-9.8Q117.79-7.75 116.94-5.85 116.09-3.95 114.44-2.53 112.79-1.1 110.37-0.25 107.94 0.6 104.79 0.6ZM134.99 0.6L134.99 0.6Q132.04 0.6 129.59-0.48 127.14-1.55 125.39-3.68 123.64-5.8 122.67-8.97 121.69-12.15 121.69-16.4L121.69-16.4Q121.69-20.5 122.67-23.63 123.64-26.75 125.39-28.85 127.14-30.95 129.59-32.02 132.04-33.1 134.99-33.1L134.99-33.1Q137.94-33.1 140.39-32.02 142.84-30.95 144.59-28.85 146.34-26.75 147.31-23.63 148.29-20.5 148.29-16.4L148.29-16.4Q148.29-12.15 147.31-8.97 146.34-5.8 144.59-3.68 142.84-1.55 140.39-0.48 137.94 0.6 134.99 0.6ZM134.99-6.8L134.99-6.8Q137.09-6.8 138.29-9.15 139.49-11.5 139.49-16.4L139.49-16.4Q139.49-21.1 138.29-23.4 137.09-25.7 134.99-25.7L134.99-25.7Q132.89-25.7 131.69-23.4 130.49-21.1 130.49-16.4L130.49-16.4Q130.49-11.5 131.69-9.15 132.89-6.8 134.99-6.8Z" opacity="1" transform="matrix(1,0,0,1,0,0)" fill="#085f63" class="wordmark-text-0" data-fill-palette-color="primary" id="text-0"></path></svg></g></svg></g></svg></g></svg></g><g transform="matrix(1,0,0,1,75.54431999999998,0)"><svg viewBox="0 0 244.43135999999996 115.90686933897402" height="115.90686933897402" width="244.43135999999996"><g><svg xmlns="http://www.w3.org/2000/svg" data-name="Layer 1" viewBox="12.165 30.81 75.64000000000001 38.379999999999995" x="8" y="0" height="115.90686933897402" width="228.43135999999996" class="icon-icon-0" data-fill-palette-color="accent" id="icon-0"><path d="M82.65 44.85H81.91V40.09a5.54 5.54 0 0 0-5.54-5.54h0A5.51 5.51 0 0 0 72.63 36a6.74 6.74 0 0 0-6.54-5.19H66a6.74 6.74 0 0 0-6.73 6.73v7.31H40.92V37.54A6.76 6.76 0 0 0 27.6 36a5.54 5.54 0 0 0-9.28 4.09v4.76h-1a5.15 5.15 0 1 0 0 10.31h1v4.76a5.54 5.54 0 0 0 5.54 5.54h0A5.51 5.51 0 0 0 27.6 64a6.73 6.73 0 0 0 6.54 5.19H34.2a6.74 6.74 0 0 0 6.73-6.73V55.16H59.3v7.31A6.76 6.76 0 0 0 72.63 64a5.54 5.54 0 0 0 9.28-4.09V55.16h0.74A5.15 5.15 0 1 0 82.65 44.85ZM18.31 53.16h-1a3.15 3.15 0 0 1 0-6.31h1v6.31Zm9.1 6.76a3.54 3.54 0 0 1-3.54 3.54h0a3.54 3.54 0 0 1-3.54-3.54V54.2s0 0 0 0 0 0 0 0V45.89s0 0 0 0 0 0 0 0V40.09a3.55 3.55 0 0 1 7.1 0V59.91Zm11.51-14.1s0 0 0 0 0 0 0 0v8.24s0 0 0 0 0 0 0 0v8.27a4.73 4.73 0 0 1-4.73 4.73H34.14a4.73 4.73 0 0 1-4.73-4.73V37.54a4.76 4.76 0 0 1 9.51 0v8.28ZM59.3 53.16H40.92V46.85H59.3v6.31ZM70.81 40.09V62.46a4.76 4.76 0 0 1-9.51 0V37.54A4.73 4.73 0 0 1 66 32.81h0.06a4.73 4.73 0 0 1 4.73 4.73v2.55Zm9.1 19.83a3.55 3.55 0 0 1-7.1 0V40.09a3.54 3.54 0 0 1 3.54-3.54h0a3.54 3.54 0 0 1 3.54 3.54V59.91Zm5-7.68a3.12 3.12 0 0 1-2.23 0.93H81.91V46.85h0.74A3.16 3.16 0 0 1 85.8 50 3.13 3.13 0 0 1 84.88 52.23Z" fill="#49beb7" data-fill-palette-color="accent"></path></svg></g></svg></g><g><rect width="75.54431999999998" height="8.284115367834376" y="106.62275397113964" x="319.97567999999995" fill="#49beb7" data-fill-palette-color="accent"></rect><rect width="75.54431999999998" height="8.284115367834376" y="106.62275397113964" x="0" fill="#49beb7" data-fill-palette-color="accent"></rect><rect width="75.54431999999998" height="8.284115367834376" y="90.0545232354709" x="319.97567999999995" fill="#49beb7" data-fill-palette-color="accent"></rect><rect width="75.54431999999998" height="8.284115367834376" y="90.0545232354709" x="0" fill="#49beb7" data-fill-palette-color="accent"></rect></g></svg></g><defs></defs></svg><rect width="395.5199999999999" height="229.45398629158598" fill="none" stroke="none" visibility="hidden"></rect></g></svg></g></svg>