<svg width="20" height="20" viewBox="0 0 20 20" fill="none" xmlns="http://www.w3.org/2000/svg">
<g clip-path="url(#clip0_66_1464)">
<path fill-rule="evenodd" clip-rule="evenodd" d="M2.00846 5.03411C2.01124 4.00497 2.91799 3.02868 3.8915 3.00087C5.07361 2.96749 6.09997 3.89928 6.12222 5.02298C6.14725 6.17172 5.19322 7.08682 3.94991 7.10351C2.90965 7.11742 2.00289 6.15225 2.00846 5.03411ZM6.32516 15.3505C5.79111 14.2657 6.40392 13.666 6.99717 13.0854C7.1949 12.8919 7.39046 12.7005 7.54065 12.494L7.58227 12.4368C7.98532 11.8833 8.21625 11.5662 7.87999 10.7834L7.80197 10.6022C7.41746 9.71096 7.0142 8.7762 6.96211 7.76827C6.87866 6.14947 8.04965 5.27888 9.62396 5.72391C10.9335 6.09172 12.1843 6.61045 13.4351 7.12917C14.3787 7.5205 15.3223 7.91182 16.2911 8.23834C16.4552 8.29397 16.661 8.38854 16.7361 8.52483C17.6751 10.2087 19.2584 10.9737 20.841 11.7382C21.6634 12.1355 22.4855 12.5326 23.2169 13.0586C23.3777 13.1751 23.5616 13.2622 23.745 13.349C23.9643 13.4529 24.1828 13.5564 24.3601 13.7095C24.4204 13.7617 24.4894 13.8138 24.56 13.8672C24.9479 14.1604 25.383 14.4894 24.6911 15.0612C24.4797 15.2365 24.5158 15.42 24.6827 15.6426C25.5617 16.8108 24.5603 16.9693 23.8316 16.9749C18.9659 17.0021 14.0989 17.0008 9.23243 16.9994H9.23235C7.14685 16.9988 5.06144 16.9982 2.97629 16.9999C2.39218 16.9999 2.00278 16.8581 2 16.1766C2 15.5007 2.37828 15.3366 2.96794 15.3449C3.74707 15.3568 4.52761 15.3546 5.33154 15.3524L5.33214 15.3524C5.65879 15.3514 5.9893 15.3505 6.32516 15.3505ZM7.80508 14.537C7.55625 14.7763 7.2902 15.0322 6.99548 15.3088H23.5284C20.2372 13.8824 16.9122 12.5663 13.5889 11.251C12.7583 10.9223 11.9279 10.5936 11.0981 10.2632C10.3582 9.9684 10.1524 10.2243 10.2609 10.8807C10.4333 11.9099 9.97997 12.6024 9.22898 13.2283C8.76033 13.6182 8.31947 14.0422 7.80508 14.537Z" fill="white"/>
</g>
<defs>
<clipPath id="clip0_66_1464">
<rect width="20" height="20" fill="white"/>
</clipPath>
</defs>
</svg>
