<svg width="24" height="24" viewBox="0 0 24 24" fill="none" xmlns="http://www.w3.org/2000/svg">
<g clip-path="url(#clip0_66_1439)">
<path fill-rule="evenodd" clip-rule="evenodd" d="M11.3109 12.9692L11.3096 12.9721L11.3622 12.9604L11.3008 12.9667L11.3109 12.9692ZM8.81577 18.2159C9.64818 16.4726 10.4756 14.7294 11.3029 12.9861C12.6912 12.9986 14.0771 13.0134 15.4654 13.0283L15.4682 13.0283L15.5114 13.0288C15.4481 13.0076 15.3848 12.9875 15.3214 12.9686C15.4018 12.9813 15.4822 12.995 15.5625 13.0098C15.8358 13.7425 16.1085 14.4755 16.3812 15.2085C16.9267 16.6745 17.4722 18.1405 18.0221 19.6043C18.0705 19.7327 18.105 19.8815 18.1401 20.0324L18.1401 20.0325C18.2595 20.5469 18.3851 21.0878 19.0857 20.9445C19.7022 20.8195 19.6477 20.364 19.5923 19.9019C19.5645 19.6697 19.5364 19.4358 19.5933 19.2413C19.6162 19.1677 19.5959 19.0738 19.573 18.9951C18.991 16.966 18.604 14.8972 18.2164 12.8255L18.2164 12.8255L18.2164 12.8252C18.1662 12.5568 18.1159 12.2883 18.0653 12.0199C17.6363 9.74561 16.6185 8.98921 14.202 8.98667C13.9841 8.98667 13.7662 8.98571 13.5483 8.98474C13.058 8.98258 12.5677 8.98042 12.0775 8.9892L12.0386 8.98993C11.6289 8.99775 11.3594 9.0029 11.2881 8.38509C11.2364 7.9425 11.1726 7.50132 11.1087 7.06005C10.9624 6.04868 10.8159 5.03685 10.8159 4.00656C10.8159 3.42529 10.4885 3.02932 9.93769 3.0014C9.31798 2.97041 9.31824 3.46092 9.31848 3.89706V3.89712C9.31849 3.92542 9.31851 3.95349 9.31835 3.98117C9.31692 4.20547 9.31202 4.43018 9.30712 4.65494C9.29471 5.22377 9.2823 5.793 9.32597 6.35701C9.59249 9.7913 9.12037 13.1088 7.803 16.2995L7.77927 16.3569L7.77927 16.3569C7.47993 17.0814 7.18091 17.8051 7.07705 18.589C7.03136 18.9342 7.06943 19.2921 7.41718 19.4545C7.83092 19.6475 8.14313 19.3784 8.3665 19.0713C8.51356 18.8705 8.62016 18.6387 8.72651 18.4074L8.72653 18.4074C8.75601 18.3433 8.78547 18.2792 8.81577 18.2159ZM4 10.8408C4.00761 9.90921 4.8554 9.01573 5.74126 9.00812C6.81242 9.0005 7.75412 9.87367 7.75412 10.8788C7.75412 11.9297 6.87841 12.747 5.74634 12.7521C4.78941 12.7572 3.99239 11.8815 4.00254 10.8382L4 10.8408ZM14.2649 15.9611L14.2649 15.9613C13.8642 17.3602 13.4701 18.7361 13.0799 20.1145C12.9352 20.6247 12.7017 21.0816 12.095 20.9877C11.4757 20.8938 11.5239 20.3455 11.5823 19.8988C11.699 19.0142 11.8253 18.1308 11.9516 17.2475C12.0779 16.3642 12.2042 15.4809 12.3209 14.5963C12.3662 14.2506 12.5705 14.2497 12.7971 14.2488L12.8413 14.2485C13.2181 14.2469 13.5948 14.2474 14.0172 14.2479C14.2465 14.2482 14.4892 14.2485 14.7526 14.2485H14.7551C14.5905 14.8243 14.4272 15.3946 14.2649 15.9611Z" fill="white"/>
</g>
<defs>
<clipPath id="clip0_66_1439">
<rect width="24" height="24" fill="white"/>
</clipPath>
</defs>
</svg>
