<svg width="24" height="24" viewBox="0 0 24 24" fill="none" xmlns="http://www.w3.org/2000/svg">
<g clip-path="url(#clip0_66_1428)">
<mask id="path-1-inside-1_66_1428" fill="white">
<path fill-rule="evenodd" clip-rule="evenodd" d="M9.81681 5.33036L13.1829 5.33036C13.4122 5.33036 13.5981 5.14448 13.5981 4.91518C13.5981 4.68588 13.4122 4.5 13.1829 4.5L9.81681 4.5C9.58752 4.5 9.40163 4.68588 9.40163 4.91518C9.40163 5.14448 9.58752 5.33036 9.81681 5.33036ZM14.9827 5.57127C15.0574 5.36662 15.0981 5.14565 15.0981 4.91518C15.0981 3.85746 14.2406 3 13.1829 3H9.81681C8.75909 3 7.90163 3.85745 7.90163 4.91518C7.90163 5.14567 7.94235 5.36665 8.01698 5.57132C7.462 5.66135 7.02678 5.81176 6.65074 6.06302C6.24518 6.33401 5.89696 6.68222 5.62597 7.08779C5 8.02462 5 9.32876 5 11.937C5 14.5453 5 15.8495 5.62597 16.7863C5.89696 17.1919 6.24518 17.5401 6.65074 17.8111C7.02681 18.0624 7.46208 18.2128 8.01714 18.3028C7.94241 18.5076 7.90163 18.7287 7.90163 18.9594C7.90163 20.0171 8.75909 20.8745 9.81681 20.8745H13.1829C14.2406 20.8745 15.0981 20.0171 15.0981 18.9594C15.0981 18.7287 15.0573 18.5076 14.9826 18.3028C15.5378 18.2128 15.9731 18.0624 16.3493 17.8111C16.7548 17.5401 17.103 17.1919 17.374 16.7863C18 15.8495 18 14.5453 18 11.937C18 9.32876 18 8.02462 17.374 7.08779C17.103 6.68222 16.7548 6.33401 16.3493 6.06302C15.9732 5.81171 15.5379 5.6613 14.9827 5.57127ZM9.81681 19.3745H13.1829C13.4122 19.3745 13.5981 19.1887 13.5981 18.9594C13.5981 18.7301 13.4122 18.5442 13.1829 18.5442H9.81681C9.58752 18.5442 9.40163 18.7301 9.40163 18.9594C9.40163 19.1887 9.58752 19.3745 9.81681 19.3745ZM12.8986 8.90266C12.4294 8.89569 11.9424 9.0359 11.4997 9.31125C11.057 9.0359 10.57 8.89569 10.1008 8.90266C9.45467 8.91226 8.79711 9.21361 8.4729 9.87043C8.1552 10.5141 8.25476 11.3026 8.66529 12.1022C9.07706 12.9043 9.84147 13.8089 11.0423 14.8002C11.1068 14.8565 11.1798 14.8992 11.2572 14.9279C11.4122 14.9853 11.5849 14.9863 11.7423 14.9279C11.8196 14.8992 11.8926 14.8565 11.9571 14.8002C13.1579 13.8089 13.9223 12.9043 14.3341 12.1022C14.7446 11.3026 14.8442 10.5141 14.5265 9.87043C14.2023 9.21361 13.5447 8.91226 12.8986 8.90266ZM10.1215 10.2954C10.3666 10.2917 10.7012 10.3965 11.0145 10.6855H11.9849C12.2982 10.3965 12.6328 10.2917 12.8779 10.2954C13.1244 10.299 13.2345 10.3998 13.2775 10.4869C13.3271 10.5873 13.3935 10.8847 13.095 11.4661C12.8408 11.9613 12.3495 12.5985 11.4997 13.3578C10.65 12.5985 10.1586 11.9613 9.90439 11.4661C9.60592 10.8847 9.67233 10.5873 9.72188 10.4869C9.76492 10.3998 9.87502 10.299 10.1215 10.2954Z"/>
</mask>
<path fill-rule="evenodd" clip-rule="evenodd" d="M9.81681 5.33036L13.1829 5.33036C13.4122 5.33036 13.5981 5.14448 13.5981 4.91518C13.5981 4.68588 13.4122 4.5 13.1829 4.5L9.81681 4.5C9.58752 4.5 9.40163 4.68588 9.40163 4.91518C9.40163 5.14448 9.58752 5.33036 9.81681 5.33036ZM14.9827 5.57127C15.0574 5.36662 15.0981 5.14565 15.0981 4.91518C15.0981 3.85746 14.2406 3 13.1829 3H9.81681C8.75909 3 7.90163 3.85745 7.90163 4.91518C7.90163 5.14567 7.94235 5.36665 8.01698 5.57132C7.462 5.66135 7.02678 5.81176 6.65074 6.06302C6.24518 6.33401 5.89696 6.68222 5.62597 7.08779C5 8.02462 5 9.32876 5 11.937C5 14.5453 5 15.8495 5.62597 16.7863C5.89696 17.1919 6.24518 17.5401 6.65074 17.8111C7.02681 18.0624 7.46208 18.2128 8.01714 18.3028C7.94241 18.5076 7.90163 18.7287 7.90163 18.9594C7.90163 20.0171 8.75909 20.8745 9.81681 20.8745H13.1829C14.2406 20.8745 15.0981 20.0171 15.0981 18.9594C15.0981 18.7287 15.0573 18.5076 14.9826 18.3028C15.5378 18.2128 15.9731 18.0624 16.3493 17.8111C16.7548 17.5401 17.103 17.1919 17.374 16.7863C18 15.8495 18 14.5453 18 11.937C18 9.32876 18 8.02462 17.374 7.08779C17.103 6.68222 16.7548 6.33401 16.3493 6.06302C15.9732 5.81171 15.5379 5.6613 14.9827 5.57127ZM9.81681 19.3745H13.1829C13.4122 19.3745 13.5981 19.1887 13.5981 18.9594C13.5981 18.7301 13.4122 18.5442 13.1829 18.5442H9.81681C9.58752 18.5442 9.40163 18.7301 9.40163 18.9594C9.40163 19.1887 9.58752 19.3745 9.81681 19.3745ZM12.8986 8.90266C12.4294 8.89569 11.9424 9.0359 11.4997 9.31125C11.057 9.0359 10.57 8.89569 10.1008 8.90266C9.45467 8.91226 8.79711 9.21361 8.4729 9.87043C8.1552 10.5141 8.25476 11.3026 8.66529 12.1022C9.07706 12.9043 9.84147 13.8089 11.0423 14.8002C11.1068 14.8565 11.1798 14.8992 11.2572 14.9279C11.4122 14.9853 11.5849 14.9863 11.7423 14.9279C11.8196 14.8992 11.8926 14.8565 11.9571 14.8002C13.1579 13.8089 13.9223 12.9043 14.3341 12.1022C14.7446 11.3026 14.8442 10.5141 14.5265 9.87043C14.2023 9.21361 13.5447 8.91226 12.8986 8.90266ZM10.1215 10.2954C10.3666 10.2917 10.7012 10.3965 11.0145 10.6855H11.9849C12.2982 10.3965 12.6328 10.2917 12.8779 10.2954C13.1244 10.299 13.2345 10.3998 13.2775 10.4869C13.3271 10.5873 13.3935 10.8847 13.095 11.4661C12.8408 11.9613 12.3495 12.5985 11.4997 13.3578C10.65 12.5985 10.1586 11.9613 9.90439 11.4661C9.60592 10.8847 9.67233 10.5873 9.72188 10.4869C9.76492 10.3998 9.87502 10.299 10.1215 10.2954Z" fill="white"/>
<path d="M13.1829 5.33036V6.83036V5.33036ZM9.81681 5.33036V3.83036V5.33036ZM13.1829 4.5V6V4.5ZM9.81681 4.5V3V4.5ZM14.9827 5.57127L13.5735 5.05743L12.9521 6.76155L14.7426 7.05193L14.9827 5.57127ZM8.01698 5.57132L8.25718 7.05196L10.0476 6.76151L9.42621 5.05744L8.01698 5.57132ZM6.65074 6.06302L5.81738 4.81581H5.81738L6.65074 6.06302ZM5.62597 7.08779L6.87317 7.92114L6.87318 7.92114L5.62597 7.08779ZM5.62597 16.7863L4.37876 17.6197L4.37877 17.6197L5.62597 16.7863ZM6.65074 17.8111L7.4841 16.5639L7.48409 16.5639L6.65074 17.8111ZM8.01714 18.3028L9.42625 18.817L10.0482 17.1126L8.2573 16.8222L8.01714 18.3028ZM7.90163 18.9594H9.40163H7.90163ZM14.9826 18.3028L14.7425 16.8222L12.9515 17.1126L13.5735 18.817L14.9826 18.3028ZM16.3493 17.8111L15.5159 16.5639L15.5159 16.5639L16.3493 17.8111ZM17.374 16.7863L18.6212 17.6197L18.6212 17.6197L17.374 16.7863ZM17.374 7.08779L16.1268 7.92114V7.92114L17.374 7.08779ZM16.3493 6.06302L15.5159 7.31022L15.5159 7.31022L16.3493 6.06302ZM11.4997 9.31125L10.7075 10.585L11.4997 11.0777L12.2919 10.585L11.4997 9.31125ZM12.8986 8.90266L12.9209 7.40283H12.9209L12.8986 8.90266ZM10.1008 8.90266L10.0785 7.40283H10.0785L10.1008 8.90266ZM8.4729 9.87043L9.81796 10.5344L9.81796 10.5344L8.4729 9.87043ZM8.66529 12.1022L9.99971 11.4172H9.9997L8.66529 12.1022ZM11.0423 14.8002L12.0285 13.67L12.013 13.6566L11.9972 13.6435L11.0423 14.8002ZM11.2572 14.9279L11.7779 13.5212L11.7779 13.5212L11.2572 14.9279ZM11.7423 14.9279L11.2215 13.5212L11.2197 13.5218L11.7423 14.9279ZM11.9571 14.8002L11.0022 13.6435L10.9864 13.6566L10.9709 13.67L11.9571 14.8002ZM14.3341 12.1022L12.9997 11.4172L12.9997 11.4172L14.3341 12.1022ZM14.5265 9.87043L13.1815 10.5344L14.5265 9.87043ZM11.0145 10.6855L9.99757 11.7881L10.4284 12.1855H11.0145V10.6855ZM10.1215 10.2954L10.1438 11.7952H10.1438L10.1215 10.2954ZM11.9849 10.6855V12.1855H12.571L13.0018 11.7881L11.9849 10.6855ZM12.8779 10.2954L12.8556 11.7952H12.8556L12.8779 10.2954ZM13.2775 10.4869L11.9325 11.1509L11.9325 11.1509L13.2775 10.4869ZM13.095 11.4661L14.4294 12.1512L13.095 11.4661ZM11.4997 13.3578L10.5002 14.4763L11.4997 15.3694L12.4992 14.4763L11.4997 13.3578ZM9.90439 11.4661L11.2388 10.781V10.781L9.90439 11.4661ZM9.72188 10.4869L8.37682 9.82301L8.37682 9.82301L9.72188 10.4869ZM13.1829 3.83036L9.81681 3.83036V6.83036L13.1829 6.83036V3.83036ZM12.0981 4.91518C12.0981 4.31605 12.5838 3.83036 13.1829 3.83036V6.83036C14.2406 6.83036 15.0981 5.9729 15.0981 4.91518H12.0981ZM13.1829 6C12.5838 6 12.0981 5.51431 12.0981 4.91518H15.0981C15.0981 3.85746 14.2406 3 13.1829 3V6ZM9.81681 6L13.1829 6V3L9.81681 3V6ZM10.9016 4.91518C10.9016 5.51431 10.4159 6 9.81681 6V3C8.75909 3 7.90163 3.85746 7.90163 4.91518H10.9016ZM9.81681 3.83036C10.4159 3.83036 10.9016 4.31605 10.9016 4.91518H7.90163C7.90163 5.9729 8.75909 6.83036 9.81681 6.83036V3.83036ZM13.5981 4.91518C13.5981 4.96785 13.5889 5.01504 13.5735 5.05743L16.392 6.08511C16.5258 5.71819 16.5981 5.32345 16.5981 4.91518H13.5981ZM13.1829 4.5C13.4122 4.5 13.5981 4.68588 13.5981 4.91518H16.5981C16.5981 3.02903 15.069 1.5 13.1829 1.5V4.5ZM9.81681 4.5H13.1829V1.5H9.81681V4.5ZM9.40163 4.91518C9.40163 4.68588 9.58752 4.5 9.81681 4.5V1.5C7.93066 1.5 6.40163 3.02903 6.40163 4.91518H9.40163ZM9.42621 5.05744C9.41075 5.01505 9.40163 4.96785 9.40163 4.91518H6.40163C6.40163 5.32348 6.47395 5.71825 6.60775 6.08519L9.42621 5.05744ZM7.77678 4.09067C7.08029 4.20366 6.42336 4.41092 5.81738 4.81581L7.48409 7.31022C7.6302 7.2126 7.84371 7.11904 8.25718 7.05196L7.77678 4.09067ZM5.81738 4.81581C5.24804 5.19624 4.75919 5.68508 4.37877 6.25443L6.87318 7.92114C7.03473 7.67936 7.24232 7.47177 7.48409 7.31022L5.81738 4.81581ZM4.37877 6.25443C3.87365 7.01039 3.67626 7.84603 3.58595 8.73381C3.49819 9.59652 3.5 10.6641 3.5 11.937H6.5C6.5 10.6017 6.50181 9.71307 6.57054 9.03743C6.63673 8.38686 6.75232 8.10201 6.87317 7.92114L4.37877 6.25443ZM3.5 11.937C3.5 13.21 3.49819 14.2776 3.58595 15.1403C3.67626 16.0281 3.87365 16.8637 4.37876 17.6197L6.87317 15.953C6.75232 15.7721 6.63673 15.4872 6.57054 14.8367C6.50181 14.161 6.5 13.2724 6.5 11.937H3.5ZM4.37877 17.6197C4.75919 18.189 5.24803 18.6779 5.81738 19.0583L7.48409 16.5639C7.24232 16.4023 7.03473 16.1947 6.87317 15.953L4.37877 17.6197ZM5.81738 19.0583C6.42342 19.4632 7.08041 19.6705 7.77698 19.7835L8.2573 16.8222C7.84374 16.7551 7.63021 16.6615 7.4841 16.5639L5.81738 19.0583ZM9.40163 18.9594C9.40163 18.9067 9.41077 18.8594 9.42625 18.817L6.60803 17.7886C6.47405 18.1557 6.40163 18.5508 6.40163 18.9594H9.40163ZM9.81681 19.3745C9.58752 19.3745 9.40163 19.1887 9.40163 18.9594H6.40163C6.40163 20.8455 7.93066 22.3745 9.81681 22.3745V19.3745ZM13.1829 19.3745H9.81681V22.3745H13.1829V19.3745ZM13.5981 18.9594C13.5981 19.1887 13.4122 19.3745 13.1829 19.3745V22.3745C15.069 22.3745 16.5981 20.8455 16.5981 18.9594H13.5981ZM13.5735 18.817C13.5889 18.8594 13.5981 18.9067 13.5981 18.9594H16.5981C16.5981 18.5508 16.5257 18.1558 16.3917 17.7887L13.5735 18.817ZM15.2227 19.7835C15.9194 19.6705 16.5765 19.4633 17.1826 19.0583L15.5159 16.5639C15.3698 16.6615 15.1562 16.7551 14.7425 16.8222L15.2227 19.7835ZM17.1826 19.0583C17.752 18.6779 18.2408 18.189 18.6212 17.6197L16.1268 15.953C15.9653 16.1947 15.7577 16.4023 15.5159 16.5639L17.1826 19.0583ZM18.6212 17.6197C19.1264 16.8637 19.3237 16.0281 19.4141 15.1403C19.5018 14.2776 19.5 13.21 19.5 11.937H16.5C16.5 13.2724 16.4982 14.161 16.4295 14.8367C16.3633 15.4872 16.2477 15.7721 16.1268 15.953L18.6212 17.6197ZM19.5 11.937C19.5 10.6641 19.5018 9.59652 19.4141 8.73381C19.3237 7.84603 19.1264 7.01039 18.6212 6.25443L16.1268 7.92114C16.2477 8.10201 16.3633 8.38686 16.4295 9.03743C16.4982 9.71307 16.5 10.6017 16.5 11.937H19.5ZM18.6212 6.25443C18.2408 5.68508 17.752 5.19624 17.1826 4.81581L15.5159 7.31022C15.7577 7.47177 15.9653 7.67936 16.1268 7.92114L18.6212 6.25443ZM17.1826 4.81581C16.5765 4.41084 15.9195 4.20359 15.2229 4.09062L14.7426 7.05193C15.1562 7.11901 15.3698 7.21258 15.5159 7.31022L17.1826 4.81581ZM13.1829 17.8745H9.81681V20.8745H13.1829V17.8745ZM12.0981 18.9594C12.0981 18.3602 12.5838 17.8745 13.1829 17.8745V20.8745C14.2406 20.8745 15.0981 20.0171 15.0981 18.9594H12.0981ZM13.1829 20.0442C12.5838 20.0442 12.0981 19.5585 12.0981 18.9594H15.0981C15.0981 17.9016 14.2406 17.0442 13.1829 17.0442V20.0442ZM9.81681 20.0442H13.1829V17.0442H9.81681V20.0442ZM10.9016 18.9594C10.9016 19.5585 10.4159 20.0442 9.81681 20.0442V17.0442C8.75909 17.0442 7.90163 17.9016 7.90163 18.9594H10.9016ZM9.81681 17.8745C10.4159 17.8745 10.9016 18.3602 10.9016 18.9594H7.90163C7.90163 20.0171 8.75909 20.8745 9.81681 20.8745V17.8745ZM12.2919 10.585C12.5128 10.4476 12.72 10.4002 12.8763 10.4025L12.9209 7.40283C12.1388 7.39121 11.372 7.62422 10.7075 8.03751L12.2919 10.585ZM10.1231 10.4025C10.2794 10.4002 10.4866 10.4476 10.7075 10.585L12.2919 8.03751C11.6274 7.62422 10.8606 7.39121 10.0785 7.40283L10.1231 10.4025ZM9.81796 10.5344C9.83613 10.4975 9.85713 10.4759 9.89433 10.4552C9.94085 10.4294 10.0196 10.404 10.1231 10.4025L10.0785 7.40283C9.00844 7.41873 7.75724 7.93138 7.12783 9.20649L9.81796 10.5344ZM9.9997 11.4172C9.70784 10.8487 9.7904 10.5902 9.81796 10.5344L7.12784 9.20649C6.51999 10.4379 6.80168 11.7565 7.33087 12.7873L9.9997 11.4172ZM11.9972 13.6435C10.8852 12.7255 10.285 11.9728 9.99971 11.4172L7.33087 12.7873C7.86916 13.8358 8.79769 14.8923 10.0873 15.957L11.9972 13.6435ZM11.7779 13.5212C11.8676 13.5544 11.9531 13.6042 12.0285 13.67L10.0561 15.9305C10.2605 16.1089 10.4919 16.2441 10.7364 16.3345L11.7779 13.5212ZM11.2197 13.5218C11.4033 13.4536 11.6009 13.4556 11.7779 13.5212L10.7364 16.3345C11.2236 16.5149 11.7665 16.5191 12.2648 16.3339L11.2197 13.5218ZM10.9709 13.67C11.0463 13.6042 11.1318 13.5544 11.2215 13.5212L12.263 16.3345C12.5075 16.2441 12.7389 16.1089 12.9433 15.9305L10.9709 13.67ZM12.9997 11.4172C12.7145 11.9728 12.1142 12.7255 11.0022 13.6435L12.9121 15.957C14.2017 14.8923 15.1302 13.8358 15.6685 12.7873L12.9997 11.4172ZM13.1815 10.5344C13.209 10.5902 13.2916 10.8487 12.9997 11.4172L15.6685 12.7873C16.1977 11.7565 16.4794 10.4379 15.8716 9.20649L13.1815 10.5344ZM12.8763 10.4025C12.9798 10.404 13.0586 10.4294 13.1051 10.4552C13.1423 10.4759 13.1633 10.4975 13.1815 10.5344L15.8716 9.20649C15.2422 7.93138 13.991 7.41873 12.9209 7.40283L12.8763 10.4025ZM12.0315 9.58287C11.4648 9.06023 10.767 8.78561 10.0992 8.79553L10.1438 11.7952C10.049 11.7966 9.99618 11.7778 9.98155 11.7719C9.96241 11.7642 9.97072 11.7634 9.99757 11.7881L12.0315 9.58287ZM11.9849 9.1855H11.0145V12.1855H11.9849V9.1855ZM12.9002 8.79553C12.2324 8.78561 11.5346 9.06023 10.9679 9.58287L13.0018 11.7881C13.0287 11.7634 13.037 11.7642 13.0179 11.7719C13.0032 11.7778 12.9504 11.7966 12.8556 11.7952L12.9002 8.79553ZM14.6226 9.82301C14.2875 9.14411 13.6055 8.80601 12.9002 8.79553L12.8556 11.7952C12.7781 11.794 12.6068 11.7752 12.4078 11.6611C12.2032 11.5437 12.0377 11.3641 11.9325 11.1509L14.6226 9.82301ZM14.4294 12.1512C14.8533 11.3255 14.9576 10.5018 14.6226 9.82301L11.9325 11.1509C11.6965 10.6729 11.9337 10.4439 11.7606 10.781L14.4294 12.1512ZM12.4992 14.4763C13.4336 13.6413 14.064 12.8631 14.4294 12.1512L11.7606 10.781C11.6176 11.0596 11.2653 11.5556 10.5002 12.2393L12.4992 14.4763ZM8.56997 12.1512C8.93545 12.8631 9.56582 13.6413 10.5002 14.4763L12.4992 12.2393C11.7341 11.5556 11.3818 11.0596 11.2388 10.781L8.56997 12.1512ZM8.37682 9.82301C8.04176 10.5018 8.14608 11.3255 8.56997 12.1512L11.2388 10.781C11.0658 10.4439 11.3029 10.6729 11.0669 11.1509L8.37682 9.82301ZM10.0992 8.79553C9.3939 8.80601 8.71193 9.14411 8.37682 9.82301L11.0669 11.1509C10.9617 11.3641 10.7962 11.5437 10.5916 11.6611C10.3926 11.7752 10.2213 11.794 10.1438 11.7952L10.0992 8.79553Z" fill="white" mask="url(#path-1-inside-1_66_1428)"/>
</g>
<defs>
<clipPath id="clip0_66_1428">
<rect width="24" height="24" fill="white"/>
</clipPath>
</defs>
</svg>
