<svg width="20" height="20" viewBox="0 0 20 20" fill="none" xmlns="http://www.w3.org/2000/svg">
<g clip-path="url(#clip0_66_1476)">
<path fill-rule="evenodd" clip-rule="evenodd" d="M9.28177 1.00076C8.43023 1.02509 7.63708 1.87906 7.63465 2.77926C7.63222 3.75731 8.42536 4.60155 9.33286 4.58938C10.4204 4.57478 11.2549 3.77434 11.233 2.76953C11.2111 1.78661 10.3158 0.971565 9.28177 1.00076ZM13.0632 6.03825C12.6915 6.0364 12.3198 6.03456 11.9484 6.03456V6.03699C11.5761 6.03699 11.2039 6.03896 10.8316 6.04093C9.96306 6.04553 9.09449 6.05013 8.22593 6.02969C7.28194 6.00536 6.63234 6.45546 6.22117 7.23644C5.51804 8.57457 4.83194 9.92244 4.19937 11.2922C3.58383 12.623 4.4597 13.9441 5.91948 13.9612C6.08539 13.9632 6.25242 13.9699 6.41969 13.9766C6.85585 13.9941 7.29363 14.0116 7.71744 13.9466C8.91932 13.7617 8.90716 14.3237 8.58357 15.1776C8.28432 15.9708 8.00453 16.7712 7.74177 17.579C7.58119 18.0802 7.43765 18.7225 8.00939 18.9487C8.55438 19.1653 8.89256 18.6568 9.14072 18.1556C9.63955 17.1507 10.152 16.1518 10.6644 15.1528C11.0193 14.4611 11.3741 13.7694 11.7245 13.0756C12.1235 12.2897 11.7489 11.8055 10.9849 11.8274C10.6365 11.8379 10.3074 11.7618 9.98054 11.6863C9.62031 11.6031 9.26282 11.5205 8.88526 11.555C8.25756 11.6133 8.22836 11.2898 8.46193 10.8251C8.54541 10.6592 8.62963 10.4936 8.71387 10.3279C9.00281 9.75979 9.29194 9.19126 9.55189 8.61107C9.76843 8.12934 10.0458 7.96877 10.6102 7.95417C12.3741 7.91037 14.1307 7.73763 15.8849 7.4992C16.4299 7.42622 16.9481 7.22185 16.9359 6.76931C16.9213 6.22676 16.3812 6.01023 15.79 6.02483C14.8817 6.04728 13.9722 6.04276 13.0632 6.03825Z" fill="white"/>
</g>
<defs>
<clipPath id="clip0_66_1476">
<rect width="20" height="20" fill="white"/>
</clipPath>
</defs>
</svg>
