<svg width="20" height="20" viewBox="0 0 20 20" fill="none" xmlns="http://www.w3.org/2000/svg">
<g clip-path="url(#clip0_66_1418)">
<path fill-rule="evenodd" clip-rule="evenodd" d="M9.58245 5.36808C9.56852 5.38905 9.55456 5.41005 9.54059 5.43107C8.65751 3.79946 7.40261 2.87235 5.61933 3.01423C4.04643 3.13899 3.05572 4.11013 2.38057 5.54115C1.62225 7.1483 2.12372 8.57933 2.78419 9.99078C3.94163 12.4605 5.93898 14.1943 7.9304 15.9229C8.26644 16.2146 8.6023 16.5061 8.93393 16.801C9.2715 17.0994 9.78521 17.0578 10.2426 16.7056C12.2167 15.1816 14.0807 13.5745 15.5166 11.4854C16.5 10.0544 17.2363 8.594 17.0871 6.83274C16.8327 3.82881 14.1125 2.37577 11.6565 3.29554C10.7293 3.64207 10.1733 4.4789 9.58245 5.36808ZM7.88927 8.87431C7.65065 10.5745 6.59702 10.5209 5.53189 10.4667C5.37206 10.4586 5.21197 10.4505 5.05433 10.4482C4.69719 10.4433 4.5602 10.3186 4.5602 9.96144C4.5602 9.59451 4.72654 9.4086 5.06167 9.49422C6.47137 9.85526 6.88226 8.90619 7.29633 7.94977C7.32271 7.88883 7.3491 7.82786 7.37577 7.7672C7.39198 7.73059 7.40758 7.69331 7.4232 7.656C7.54427 7.36671 7.66615 7.07549 8.07783 7.07982C8.47447 7.08413 8.60517 7.36199 8.73775 7.64389C8.75562 7.68188 8.77353 7.71994 8.79212 7.75742C9.09759 8.36836 9.40829 8.97757 9.73009 9.60855C9.78968 9.72538 9.84965 9.84296 9.91003 9.96144C9.98019 9.86956 10.0455 9.78596 10.1069 9.70731C10.2254 9.55562 10.3295 9.42239 10.4262 9.28384C11.2505 8.09988 11.2701 8.08032 12.251 9.22024C12.5508 9.56851 12.8848 9.52712 13.2172 9.48594C13.3705 9.46695 13.5233 9.44801 13.6723 9.46731C14.0588 9.51868 14.4526 9.57494 14.4159 10.0201C14.389 10.3528 14.0319 10.4996 13.6747 10.4409C13.4385 10.4021 13.1932 10.4224 12.9476 10.4427C12.4506 10.4838 11.9526 10.525 11.527 10.0764C11.2872 9.82445 11.1478 10.0153 11.0304 10.277C10.9738 10.4066 10.8791 10.518 10.7839 10.6301C10.7227 10.7021 10.6613 10.7744 10.6096 10.8519C9.89535 11.9257 9.74369 11.9013 9.093 10.7369C9.01016 10.5878 8.9391 10.4313 8.86611 10.2707C8.65954 9.81592 8.43756 9.32726 7.88927 8.87431Z" fill="white"/>
</g>
<defs>
<clipPath id="clip0_66_1418">
<rect width="20" height="20" fill="white"/>
</clipPath>
</defs>
</svg>
